<?xml version="1.0" standalone="no"?>
<!DOCTYPE svg PUBLIC "-//W3C//DTD SVG 20010904//EN"
 "http://www.w3.org/TR/2001/REC-SVG-20010904/DTD/svg10.dtd">
<svg version="1.0" xmlns="http://www.w3.org/2000/svg"
 width="736.000000pt" height="736.000000pt" viewBox="0 0 736.000000 736.000000"
 preserveAspectRatio="xMidYMid meet">

<g transform="translate(0.000000,736.000000) scale(0.100000,-0.100000)"
fill="#000000" stroke="none">
<path d="M2679 6042 c-266 -186 -842 -587 -1279 -892 -437 -304 -818 -570
-846 -591 -62 -45 -118 -128 -153 -223 -23 -64 -25 -85 -26 -221 0 -112 4
-166 18 -215 26 -100 89 -218 152 -287 54 -60 58 -63 135 -79 107 -23 106 -22
89 -81 -9 -31 -14 -97 -14 -188 0 -160 16 -243 70 -348 l32 -66 -81 -55 c-133
-89 -190 -164 -232 -301 -26 -83 -26 -312 0 -405 31 -115 92 -227 160 -295
l61 -62 730 -152 c1244 -260 1673 -350 1865 -391 621 -132 1005 -210 1038
-210 34 0 59 19 302 227 602 515 954 815 1280 1093 853 728 780 660 780 715 0
47 -34 87 -82 99 l-28 6 0 264 0 263 156 133 c85 74 162 143 170 154 36 52 2
128 -67 146 l-39 11 0 310 0 311 49 44 c27 24 52 55 55 69 8 32 -16 90 -44
105 -12 7 -106 27 -209 46 -102 18 -196 36 -208 39 l-23 5 0 269 0 269 36 27
c42 32 74 81 74 112 0 13 -13 37 -28 54 -28 31 -34 33 -293 80 -1822 330
-3049 549 -3079 549 -32 0 -97 -42 -521 -338z m3611 -970 l0 -308 -512 -436
c-1034 -879 -1310 -1113 -1550 -1316 -17 -14 -18 1 -18 311 0 305 1 327 18
327 26 0 67 29 187 132 61 52 299 256 530 453 641 548 859 734 1110 948 126
109 231 197 232 197 2 0 3 -139 3 -308z m390 -836 l0 -305 -132 -114 c-73 -62
-302 -257 -508 -432 -206 -175 -494 -421 -640 -545 -146 -124 -388 -330 -537
-458 l-273 -232 0 330 0 330 24 0 c13 0 36 10 52 22 16 13 305 259 643 548
338 289 687 586 775 662 89 75 256 217 371 317 116 99 213 180 218 180 4 1 7
-136 7 -303z m-5862 129 c89 -20 2990 -628 3130 -656 l62 -13 0 -328 c0 -369
8 -337 -80 -317 -47 11 -397 84 -1570 329 -873 182 -1567 328 -1597 335 l-23
5 0 330 c0 182 2 330 6 330 3 0 35 -7 72 -15z m5631 -1152 l0 -258 -301 -255
c-166 -140 -412 -349 -548 -465 -766 -653 -1222 -1040 -1231 -1043 -5 -2 -9
122 -9 322 l0 326 23 0 c23 0 64 27 136 88 29 25 39 28 68 22 49 -12 75 -1
140 55 53 47 866 741 1466 1253 137 116 251 212 253 212 2 0 4 -116 3 -257z
m-4444 42 c462 -97 1022 -214 1245 -261 223 -47 522 -110 665 -140 353 -75
350 -75 403 -31 73 62 72 68 72 -305 l0 -330 -26 6 c-21 6 -387 83 -1284 271
-63 13 -200 42 -305 64 -104 22 -514 108 -910 190 -396 83 -726 153 -732 156
-10 3 -13 70 -13 286 l0 281 23 -5 c12 -3 400 -85 862 -182z m-125 -894 c498
-104 1049 -220 1225 -257 176 -37 484 -101 685 -144 l365 -77 3 -332 c2 -314
1 -332 -15 -327 -10 3 -243 53 -518 110 -275 58 -759 159 -1075 225 -316 67
-818 172 -1115 234 l-540 113 -3 320 c-1 175 0 324 2 330 3 9 16 10 43 4 21
-5 445 -94 943 -199z"/>
</g>
</svg>
